<svg width="81" height="81" viewBox="0 0 81 81" fill="none" xmlns="http://www.w3.org/2000/svg">
<g clip-path="url(#clip0_1_31)">
<path d="M40.5296 0.407043C18.7031 0.407043 0.948334 18.1636 0.948334 39.9883C0.948334 61.813 18.7031 79.5695 40.5296 79.5695C62.356 79.5695 80.1108 61.813 80.1108 39.9883C80.1108 18.1636 62.356 0.407043 40.5296 0.407043ZM40.5296 76.2711C20.5231 76.2711 4.24672 59.9947 4.24672 39.9883C4.24672 19.9818 20.5231 3.70543 40.5296 3.70543C60.536 3.70543 76.8124 19.9818 76.8124 39.9883C76.8124 59.9947 60.536 76.2711 40.5296 76.2711Z" fill="white"/>
<path d="M56.2652 38.6015L33.1762 23.7586C32.6705 23.4285 32.0166 23.4107 31.4948 23.6973C30.9632 23.9872 30.6347 24.5414 30.6347 25.1453V54.8312C30.6347 55.4352 30.9632 55.9893 31.4948 56.2792C31.7395 56.4129 32.0134 56.4805 32.2839 56.4805C32.5932 56.4805 32.9056 56.3935 33.1762 56.218L56.2652 41.375C56.7356 41.0723 57.0222 40.5488 57.0222 39.9883C57.0222 39.4278 56.7356 38.9044 56.2652 38.6015ZM33.9331 51.8098V28.1668L52.3226 39.9883L33.9331 51.8098Z" fill="white"/>
</g>
<defs>
<clipPath id="clip0_1_31">
<rect width="80" height="80" fill="white" transform="translate(0.948334 0.407043)"/>
</clipPath>
</defs>
</svg>
